<svg t="1719932500429" class="icon" viewBox="0 0 1024 1024" version="1.1" xmlns="http://www.w3.org/2000/svg" p-id="3612" width="48" height="48">
  <path d="M0 0m0 0l1024 0q0 0 0 0l0 1024q0 0 0 0l-1024 0q0 0 0 0l0-1024q0 0 0 0Z" fill="#fd648f" fill-opacity="0" p-id="3613"></path>
  <path d="M782.6338912 421.78870293c2.60654507 0.42201173 22.96242453-4.2201216 23.83127253-2.65619413 1.31568533 1.9859392 10.42618133 68.88727253 8.0182304 69.33410987q-2.38312747 0.42201173-19.2636128 4.41871466c-1.2908608-9.060848-12.337648-65.33740587-12.58589013-71.0966304z m32.5197568-6.45430293l8.86225493 71.99030293c4.54283627-0.19859413 22.96242453-1.5142784 24.7001216-1.7625216q-2.60654507-27.2073696-7.17420586-70.2029568a66.33037547 66.33037547 0 0 0-26.38817067 0z m-17.5507392 99.892752q40.06632747-10.37653333 54.58850987-5.31238827c7.3728 27.25701867 20.7778912 180.0998784 22.09357546 186.28111467-9.11049707 1.14191467-39.0237088 3.7981088-41.3820128 4.44354027-1.9362912-11.518448-35.30007253-178.0642912-35.30007253-185.4370912z m148.34967253-91.651104c2.38312747 0.67025493 23.5830304-2.23418133 23.8312736-0.6950784 0.39718827 5.33721173 2.60654507 69.55752747 0.19859307 69.78094507l-19.28843627 1.78734613c-0.39718827-8.8870784-5.16344213-64.91539413-4.7414304-70.8732128z m32.668704-1.78734507l1.78734507 71.0966304c4.54283627 0 22.7638304 1.09226667 24.65047253 0.868848q-0.39718827-27.23219413 0-70.25260586a117.22007253 117.22007253 0 0 0-26.4378176-1.73769707z m-27.9272736 95.44921174q40.96-5.48615787 54.836752 1.1170912c3.00373333 31.899152 2.60654507 180.49706667 3.00373334 186.727952-9.3090912 0-38.9740608 0.42201173-41.35718827 0.84402346-0.42201173-11.4688-17.10390293-181.36591467-16.48329707-188.66424213z m-95.076848-182.70642347c23.6326784 123.12824213 41.58060587 333.56334507 42.2508608 347.0429088q18.61818133 0.44683627 39.64431467 1.78734507c-12.337648-132.68557547-27.53008533-344.63495787-27.30666667-351.51127254q-5.18826667-5.98264213-54.5885088 2.68101867zM803.684848 625.76950293c-4.5676608-34.55534507-125.36242453-73.728-193.380848-61.11728426q-8.44024213-76.1856-11.71704213-149.96324907a1564.9698912 1564.9698912 0 0 1 0.19859413-135.11835093c-4.54283627-3.30162453-53.49624213 20.6041216-79.8844128 30.58346666q31.6012608 136.90569707 54.56368533 420.8205568 36.61575787 3.9718784 99.42109014-8.44024213c62.80533333-12.38729707 137.07946667-51.1379392 130.79893333-96.76489707z m-147.70424213 62.209552l-10.59995094-78.14671573c2.60654507-1.31568533 67.77018133 23.48373333 74.7209696 27.92727253q-1.06744213 4.865552-64.12101866 50.2194432zM279.3472 421.78870293c2.55689707 0.42201173 22.91277547-4.2201216 23.78162453-2.65619413 1.3405088 1.9859392 10.42618133 68.88727253 8.04305387 69.33410987q-2.407952 0.42201173-19.28843627 4.41871466c-1.2908608-9.060848-12.337648-65.33740587-12.53624213-71.0966304z m32.4701088-6.45430293l8.86225493 71.99030293c4.54283627-0.19859413 22.96242453-1.5142784 24.7001216-1.7625216l-7.12455786-70.2029568a66.5289696 66.5289696 0 0 0-26.43781867 0z m-17.50109013 99.892752q40.06632747-10.37653333 54.5885088-5.31238827c7.34797547 27.25701867 20.75306667 180.0998784 22.09357546 186.28111467-9.11049707 1.14191467-38.9740608 3.7981088-41.38201173 4.44354027-1.9362912-11.518448-35.30007253-178.0642912-35.30007253-185.4370912z m148.34967253-91.651104c2.38312747 0.67025493 23.5830304-2.23418133 23.83127253-0.6950784 0.39718827 5.33721173 2.60654507 69.55752747 0.19859414 69.78094507l-19.23878827 1.78734613c-0.44683627-8.8870784-4.964848-64.91539413-4.7910784-70.8732128z m32.66870293-1.78734507l1.78734507 71.0966304c4.54283627 0 22.7638304 1.09226667 24.65047253 0.868848q-0.39718827-27.23219413 0-70.25260586a131.7174304 131.7174304 0 0 0-26.4378176-1.73769707zM447.4569696 517.2130912q40.910352-5.48615787 54.78710293 1.11709013c3.00373333 31.899152 2.60654507 180.49706667 3.00373334 186.727952-9.3090912 0-38.9740608 0.42201173-41.3571872 0.84402454-0.22341867-11.4688-17.10390293-181.36591467-16.43364907-188.6642432z m-95.12649707-182.70642453c23.5830304 123.12824213 41.58060587 333.56334507 42.2012128 347.0429088q18.61818133 0.44683627 39.64431467 1.78734613c-12.337648-132.68557547-27.5052608-344.63495787-27.30666667-351.70986667q-5.16344213-5.784048-54.5388608 2.87961174z m-52.0067872 291.23801173c-4.54283627-34.55534507-125.36242453-73.728-193.38084906-61.11728427q-8.44024213-76.1856-11.71704214-149.96324906a1565.3670784 1565.3670784 0 0 1 0.24824214-135.11835094c-4.54283627-3.1030304-53.49624213 20.6041216-79.9340608 30.58346667q31.6012608 136.90569707 54.61333333 420.82055787 36.5661088 3.9718784 99.3714432-8.4402432c62.80533333-12.38729707 137.07946667-51.1379392 130.79893333-96.76489707z m-147.7042432 62.209552l-10.59995093-78.14671573c2.60654507-1.31568533 67.77018133 23.48373333 74.7209696 27.9272736q-1.06744213 4.865552-64.12101867 50.21944213z" fill="#EE80A2" p-id="3614"></path>
</svg>